%TF.GenerationSoftware,KiCad,Pcbnew,10.0.6*%
%TF.CreationDate,2026-09-14T22:04:45+02:00*%
%TF.ProjectId,PCB pal,50434220-7061-46c2-9e6b-696361645f70,rev?*%
%TF.SameCoordinates,Original*%
%TF.FileFunction,Legend,Bot*%
%TF.FilePolarity,Positive*%
%FSLAX46Y46*%
G04 Gerber Fmt 4.6, Leading zero omitted, Abs format (unit mm)*
G04 Created by KiCad (PCBNEW 10.0.6) date 2026-09-14 22:04:45*
%MOMM*%
%LPD*%
G01*
G04 APERTURE LIST*
%ADD10C,0.150000*%
G04 APERTURE END LIST*
D10*
X29263220Y-9869819D02*
X29263220Y-8869819D01*
X29263220Y-8869819D02*
X28929887Y-9584104D01*
X28929887Y-9584104D02*
X28596554Y-8869819D01*
X28596554Y-8869819D02*
X28596554Y-9869819D01*
X27691792Y-9869819D02*
X27691792Y-9346009D01*
X27691792Y-9346009D02*
X27739411Y-9250771D01*
X27739411Y-9250771D02*
X27834649Y-9203152D01*
X27834649Y-9203152D02*
X28025125Y-9203152D01*
X28025125Y-9203152D02*
X28120363Y-9250771D01*
X27691792Y-9822200D02*
X27787030Y-9869819D01*
X27787030Y-9869819D02*
X28025125Y-9869819D01*
X28025125Y-9869819D02*
X28120363Y-9822200D01*
X28120363Y-9822200D02*
X28167982Y-9726961D01*
X28167982Y-9726961D02*
X28167982Y-9631723D01*
X28167982Y-9631723D02*
X28120363Y-9536485D01*
X28120363Y-9536485D02*
X28025125Y-9488866D01*
X28025125Y-9488866D02*
X27787030Y-9488866D01*
X27787030Y-9488866D02*
X27691792Y-9441247D01*
X26787030Y-9869819D02*
X26787030Y-8869819D01*
X26787030Y-9822200D02*
X26882268Y-9869819D01*
X26882268Y-9869819D02*
X27072744Y-9869819D01*
X27072744Y-9869819D02*
X27167982Y-9822200D01*
X27167982Y-9822200D02*
X27215601Y-9774580D01*
X27215601Y-9774580D02*
X27263220Y-9679342D01*
X27263220Y-9679342D02*
X27263220Y-9393628D01*
X27263220Y-9393628D02*
X27215601Y-9298390D01*
X27215601Y-9298390D02*
X27167982Y-9250771D01*
X27167982Y-9250771D02*
X27072744Y-9203152D01*
X27072744Y-9203152D02*
X26882268Y-9203152D01*
X26882268Y-9203152D02*
X26787030Y-9250771D01*
X25929887Y-9822200D02*
X26025125Y-9869819D01*
X26025125Y-9869819D02*
X26215601Y-9869819D01*
X26215601Y-9869819D02*
X26310839Y-9822200D01*
X26310839Y-9822200D02*
X26358458Y-9726961D01*
X26358458Y-9726961D02*
X26358458Y-9346009D01*
X26358458Y-9346009D02*
X26310839Y-9250771D01*
X26310839Y-9250771D02*
X26215601Y-9203152D01*
X26215601Y-9203152D02*
X26025125Y-9203152D01*
X26025125Y-9203152D02*
X25929887Y-9250771D01*
X25929887Y-9250771D02*
X25882268Y-9346009D01*
X25882268Y-9346009D02*
X25882268Y-9441247D01*
X25882268Y-9441247D02*
X26358458Y-9536485D01*
X24548934Y-9869819D02*
X24644172Y-9822200D01*
X24644172Y-9822200D02*
X24691791Y-9774580D01*
X24691791Y-9774580D02*
X24739410Y-9679342D01*
X24739410Y-9679342D02*
X24739410Y-9393628D01*
X24739410Y-9393628D02*
X24691791Y-9298390D01*
X24691791Y-9298390D02*
X24644172Y-9250771D01*
X24644172Y-9250771D02*
X24548934Y-9203152D01*
X24548934Y-9203152D02*
X24406077Y-9203152D01*
X24406077Y-9203152D02*
X24310839Y-9250771D01*
X24310839Y-9250771D02*
X24263220Y-9298390D01*
X24263220Y-9298390D02*
X24215601Y-9393628D01*
X24215601Y-9393628D02*
X24215601Y-9679342D01*
X24215601Y-9679342D02*
X24263220Y-9774580D01*
X24263220Y-9774580D02*
X24310839Y-9822200D01*
X24310839Y-9822200D02*
X24406077Y-9869819D01*
X24406077Y-9869819D02*
X24548934Y-9869819D01*
X23787029Y-9203152D02*
X23787029Y-9869819D01*
X23787029Y-9298390D02*
X23739410Y-9250771D01*
X23739410Y-9250771D02*
X23644172Y-9203152D01*
X23644172Y-9203152D02*
X23501315Y-9203152D01*
X23501315Y-9203152D02*
X23406077Y-9250771D01*
X23406077Y-9250771D02*
X23358458Y-9346009D01*
X23358458Y-9346009D02*
X23358458Y-9869819D01*
X21739410Y-9822200D02*
X21834648Y-9869819D01*
X21834648Y-9869819D02*
X22025124Y-9869819D01*
X22025124Y-9869819D02*
X22120362Y-9822200D01*
X22120362Y-9822200D02*
X22167981Y-9726961D01*
X22167981Y-9726961D02*
X22167981Y-9346009D01*
X22167981Y-9346009D02*
X22120362Y-9250771D01*
X22120362Y-9250771D02*
X22025124Y-9203152D01*
X22025124Y-9203152D02*
X21834648Y-9203152D01*
X21834648Y-9203152D02*
X21739410Y-9250771D01*
X21739410Y-9250771D02*
X21691791Y-9346009D01*
X21691791Y-9346009D02*
X21691791Y-9441247D01*
X21691791Y-9441247D02*
X22167981Y-9536485D01*
X20834648Y-9869819D02*
X20834648Y-9346009D01*
X20834648Y-9346009D02*
X20882267Y-9250771D01*
X20882267Y-9250771D02*
X20977505Y-9203152D01*
X20977505Y-9203152D02*
X21167981Y-9203152D01*
X21167981Y-9203152D02*
X21263219Y-9250771D01*
X20834648Y-9822200D02*
X20929886Y-9869819D01*
X20929886Y-9869819D02*
X21167981Y-9869819D01*
X21167981Y-9869819D02*
X21263219Y-9822200D01*
X21263219Y-9822200D02*
X21310838Y-9726961D01*
X21310838Y-9726961D02*
X21310838Y-9631723D01*
X21310838Y-9631723D02*
X21263219Y-9536485D01*
X21263219Y-9536485D02*
X21167981Y-9488866D01*
X21167981Y-9488866D02*
X20929886Y-9488866D01*
X20929886Y-9488866D02*
X20834648Y-9441247D01*
X20358457Y-9869819D02*
X20358457Y-9203152D01*
X20358457Y-9393628D02*
X20310838Y-9298390D01*
X20310838Y-9298390D02*
X20263219Y-9250771D01*
X20263219Y-9250771D02*
X20167981Y-9203152D01*
X20167981Y-9203152D02*
X20072743Y-9203152D01*
X19882266Y-9203152D02*
X19501314Y-9203152D01*
X19739409Y-8869819D02*
X19739409Y-9726961D01*
X19739409Y-9726961D02*
X19691790Y-9822200D01*
X19691790Y-9822200D02*
X19596552Y-9869819D01*
X19596552Y-9869819D02*
X19501314Y-9869819D01*
X19167980Y-9869819D02*
X19167980Y-8869819D01*
X18739409Y-9869819D02*
X18739409Y-9346009D01*
X18739409Y-9346009D02*
X18787028Y-9250771D01*
X18787028Y-9250771D02*
X18882266Y-9203152D01*
X18882266Y-9203152D02*
X19025123Y-9203152D01*
X19025123Y-9203152D02*
X19120361Y-9250771D01*
X19120361Y-9250771D02*
X19167980Y-9298390D01*
X17501313Y-9869819D02*
X17501313Y-8869819D01*
X17501313Y-9250771D02*
X17406075Y-9203152D01*
X17406075Y-9203152D02*
X17215599Y-9203152D01*
X17215599Y-9203152D02*
X17120361Y-9250771D01*
X17120361Y-9250771D02*
X17072742Y-9298390D01*
X17072742Y-9298390D02*
X17025123Y-9393628D01*
X17025123Y-9393628D02*
X17025123Y-9679342D01*
X17025123Y-9679342D02*
X17072742Y-9774580D01*
X17072742Y-9774580D02*
X17120361Y-9822200D01*
X17120361Y-9822200D02*
X17215599Y-9869819D01*
X17215599Y-9869819D02*
X17406075Y-9869819D01*
X17406075Y-9869819D02*
X17501313Y-9822200D01*
X16691789Y-9203152D02*
X16453694Y-9869819D01*
X16215599Y-9203152D02*
X16453694Y-9869819D01*
X16453694Y-9869819D02*
X16548932Y-10107914D01*
X16548932Y-10107914D02*
X16596551Y-10155533D01*
X16596551Y-10155533D02*
X16691789Y-10203152D01*
X14644170Y-9869819D02*
X14644170Y-9346009D01*
X14644170Y-9346009D02*
X14691789Y-9250771D01*
X14691789Y-9250771D02*
X14787027Y-9203152D01*
X14787027Y-9203152D02*
X14977503Y-9203152D01*
X14977503Y-9203152D02*
X15072741Y-9250771D01*
X14644170Y-9822200D02*
X14739408Y-9869819D01*
X14739408Y-9869819D02*
X14977503Y-9869819D01*
X14977503Y-9869819D02*
X15072741Y-9822200D01*
X15072741Y-9822200D02*
X15120360Y-9726961D01*
X15120360Y-9726961D02*
X15120360Y-9631723D01*
X15120360Y-9631723D02*
X15072741Y-9536485D01*
X15072741Y-9536485D02*
X14977503Y-9488866D01*
X14977503Y-9488866D02*
X14739408Y-9488866D01*
X14739408Y-9488866D02*
X14644170Y-9441247D01*
X13406074Y-9869819D02*
X13406074Y-8869819D01*
X12977503Y-9869819D02*
X12977503Y-9346009D01*
X12977503Y-9346009D02*
X13025122Y-9250771D01*
X13025122Y-9250771D02*
X13120360Y-9203152D01*
X13120360Y-9203152D02*
X13263217Y-9203152D01*
X13263217Y-9203152D02*
X13358455Y-9250771D01*
X13358455Y-9250771D02*
X13406074Y-9298390D01*
X12072741Y-9203152D02*
X12072741Y-9869819D01*
X12501312Y-9203152D02*
X12501312Y-9726961D01*
X12501312Y-9726961D02*
X12453693Y-9822200D01*
X12453693Y-9822200D02*
X12358455Y-9869819D01*
X12358455Y-9869819D02*
X12215598Y-9869819D01*
X12215598Y-9869819D02*
X12120360Y-9822200D01*
X12120360Y-9822200D02*
X12072741Y-9774580D01*
X11596550Y-9869819D02*
X11596550Y-9203152D01*
X11596550Y-9298390D02*
X11548931Y-9250771D01*
X11548931Y-9250771D02*
X11453693Y-9203152D01*
X11453693Y-9203152D02*
X11310836Y-9203152D01*
X11310836Y-9203152D02*
X11215598Y-9250771D01*
X11215598Y-9250771D02*
X11167979Y-9346009D01*
X11167979Y-9346009D02*
X11167979Y-9869819D01*
X11167979Y-9346009D02*
X11120360Y-9250771D01*
X11120360Y-9250771D02*
X11025122Y-9203152D01*
X11025122Y-9203152D02*
X10882265Y-9203152D01*
X10882265Y-9203152D02*
X10787026Y-9250771D01*
X10787026Y-9250771D02*
X10739407Y-9346009D01*
X10739407Y-9346009D02*
X10739407Y-9869819D01*
X9834646Y-9869819D02*
X9834646Y-9346009D01*
X9834646Y-9346009D02*
X9882265Y-9250771D01*
X9882265Y-9250771D02*
X9977503Y-9203152D01*
X9977503Y-9203152D02*
X10167979Y-9203152D01*
X10167979Y-9203152D02*
X10263217Y-9250771D01*
X9834646Y-9822200D02*
X9929884Y-9869819D01*
X9929884Y-9869819D02*
X10167979Y-9869819D01*
X10167979Y-9869819D02*
X10263217Y-9822200D01*
X10263217Y-9822200D02*
X10310836Y-9726961D01*
X10310836Y-9726961D02*
X10310836Y-9631723D01*
X10310836Y-9631723D02*
X10263217Y-9536485D01*
X10263217Y-9536485D02*
X10167979Y-9488866D01*
X10167979Y-9488866D02*
X9929884Y-9488866D01*
X9929884Y-9488866D02*
X9834646Y-9441247D01*
X9358455Y-9203152D02*
X9358455Y-9869819D01*
X9358455Y-9298390D02*
X9310836Y-9250771D01*
X9310836Y-9250771D02*
X9215598Y-9203152D01*
X9215598Y-9203152D02*
X9072741Y-9203152D01*
X9072741Y-9203152D02*
X8977503Y-9250771D01*
X8977503Y-9250771D02*
X8929884Y-9346009D01*
X8929884Y-9346009D02*
X8929884Y-9869819D01*
M02*
