%TF.GenerationSoftware,KiCad,Pcbnew,10.0.6*%
%TF.CreationDate,2026-09-14T22:04:46+02:00*%
%TF.ProjectId,PCB pal,50434220-7061-46c2-9e6b-696361645f70,rev?*%
%TF.SameCoordinates,Original*%
%TF.FileFunction,Soldermask,Bot*%
%TF.FilePolarity,Negative*%
%FSLAX46Y46*%
G04 Gerber Fmt 4.6, Leading zero omitted, Abs format (unit mm)*
G04 Created by KiCad (PCBNEW 10.0.6) date 2026-09-14 22:04:46*
%MOMM*%
%LPD*%
G01*
G04 APERTURE LIST*
G04 Aperture macros list*
%AMRoundRect*
0 Rectangle with rounded corners*
0 $1 Rounding radius*
0 $2 $3 $4 $5 $6 $7 $8 $9 X,Y pos of 4 corners*
0 Add a 4 corners polygon primitive as box body*
4,1,4,$2,$3,$4,$5,$6,$7,$8,$9,$2,$3,0*
0 Add four circle primitives for the rounded corners*
1,1,$1+$1,$2,$3*
1,1,$1+$1,$4,$5*
1,1,$1+$1,$6,$7*
1,1,$1+$1,$8,$9*
0 Add four rect primitives between the rounded corners*
20,1,$1+$1,$2,$3,$4,$5,0*
20,1,$1+$1,$4,$5,$6,$7,0*
20,1,$1+$1,$6,$7,$8,$9,0*
20,1,$1+$1,$8,$9,$2,$3,0*%
G04 Aperture macros list end*
%ADD10C,3.050000*%
%ADD11C,1.600000*%
%ADD12R,1.350000X1.350000*%
%ADD13C,1.350000*%
%ADD14RoundRect,0.102000X0.762000X0.762000X-0.762000X0.762000X-0.762000X-0.762000X0.762000X-0.762000X0*%
%ADD15C,1.728000*%
%ADD16R,1.800000X1.800000*%
%ADD17C,1.800000*%
G04 APERTURE END LIST*
D10*
X4525000Y-3000000D02*
G75*
G02*
X1475000Y-3000000I-1525000J0D01*
G01*
X1475000Y-3000000D02*
G75*
G02*
X4525000Y-3000000I1525000J0D01*
G01*
X4525000Y-67000000D02*
G75*
G02*
X1475000Y-67000000I-1525000J0D01*
G01*
X1475000Y-67000000D02*
G75*
G02*
X4525000Y-67000000I1525000J0D01*
G01*
X48525000Y-3000000D02*
G75*
G02*
X45475000Y-3000000I-1525000J0D01*
G01*
X45475000Y-3000000D02*
G75*
G02*
X48525000Y-3000000I1525000J0D01*
G01*
X48525000Y-67000000D02*
G75*
G02*
X45475000Y-67000000I-1525000J0D01*
G01*
X45475000Y-67000000D02*
G75*
G02*
X48525000Y-67000000I1525000J0D01*
G01*
D11*
%TO.C,R1*%
X46300000Y-14420000D03*
X46300000Y-24580000D03*
%TD*%
D12*
%TO.C,J1*%
X41100000Y-34900000D03*
D13*
X41100000Y-36900000D03*
X41100000Y-38900000D03*
X41100000Y-40900000D03*
%TD*%
D12*
%TO.C,M1*%
X41100000Y-17800000D03*
D13*
X41100000Y-19800000D03*
X41100000Y-21800000D03*
%TD*%
D11*
%TO.C,R2*%
X46300000Y-36880000D03*
X46300000Y-26720000D03*
%TD*%
D14*
%TO.C,U1*%
X31219000Y-56401000D03*
D15*
X31219000Y-53861000D03*
X31219000Y-51321000D03*
X31219000Y-48781000D03*
X31219000Y-46241000D03*
X31219000Y-43701000D03*
X31219000Y-41161000D03*
X31219000Y-38621000D03*
X31219000Y-36081000D03*
X31219000Y-33541000D03*
X31219000Y-31001000D03*
X31219000Y-28461000D03*
X31219000Y-25921000D03*
X31219000Y-23381000D03*
X31219000Y-20841000D03*
X31219000Y-18301000D03*
X8359000Y-56401000D03*
X8359000Y-53861000D03*
X8359000Y-51321000D03*
X8359000Y-48781000D03*
X8359000Y-46241000D03*
X8359000Y-43701000D03*
X8359000Y-41161000D03*
X8359000Y-38621000D03*
X8359000Y-36081000D03*
X8359000Y-33541000D03*
X8359000Y-31001000D03*
X8359000Y-28461000D03*
X8359000Y-25921000D03*
X8359000Y-23381000D03*
X8359000Y-20841000D03*
X8359000Y-18301000D03*
%TD*%
D12*
%TO.C,M2*%
X41000000Y-26800000D03*
D13*
X41000000Y-28800000D03*
X41000000Y-30800000D03*
%TD*%
D16*
%TO.C,D2*%
X46200000Y-42070000D03*
D17*
X46200000Y-39530000D03*
%TD*%
D12*
%TO.C,J2*%
X40984000Y-11901000D03*
D13*
X40984000Y-13901000D03*
%TD*%
D16*
%TO.C,D1*%
X46300000Y-9000000D03*
D17*
X46300000Y-11540000D03*
%TD*%
M02*
