M48
; DRILL file KiCad 10.0.6 date 2026-09-14T22:04:34
; FORMAT={-:-/ absolute / metric / decimal}
; #@! TF.CreationDate,2026-09-14T22:04:34+02:00
; #@! TF.GenerationSoftware,Kicad,Pcbnew,10.0.6
; #@! TF.FileFunction,Plated,1,2,PTH
FMAT,2
METRIC
; #@! TA.AperFunction,Plated,PTH,ViaDrill
T1C0.300
; #@! TA.AperFunction,Plated,PTH,ComponentDrill
T2C0.800
; #@! TA.AperFunction,Plated,PTH,ComponentDrill
T3C0.900
; #@! TA.AperFunction,Plated,PTH,ComponentDrill
T4C1.016
%
G90
G05
T1
X14.1Y-34.1
X16.8Y-34.1
X36.159Y-9.541
T2
X40.984Y-11.901
X40.984Y-13.901
X41.0Y-26.8
X41.0Y-28.8
X41.0Y-30.8
X41.1Y-17.8
X41.1Y-19.8
X41.1Y-21.8
X41.1Y-34.9
X41.1Y-36.9
X41.1Y-38.9
X41.1Y-40.9
X46.3Y-14.42
X46.3Y-24.58
X46.3Y-26.72
X46.3Y-36.88
T3
X46.2Y-39.53
X46.2Y-42.07
X46.3Y-9.0
X46.3Y-11.54
T4
X8.359Y-18.301
X8.359Y-20.841
X8.359Y-23.381
X8.359Y-25.921
X8.359Y-28.461
X8.359Y-31.001
X8.359Y-33.541
X8.359Y-36.081
X8.359Y-38.621
X8.359Y-41.161
X8.359Y-43.701
X8.359Y-46.241
X8.359Y-48.781
X8.359Y-51.321
X8.359Y-53.861
X8.359Y-56.401
X31.219Y-18.301
X31.219Y-20.841
X31.219Y-23.381
X31.219Y-25.921
X31.219Y-28.461
X31.219Y-31.001
X31.219Y-33.541
X31.219Y-36.081
X31.219Y-38.621
X31.219Y-41.161
X31.219Y-43.701
X31.219Y-46.241
X31.219Y-48.781
X31.219Y-51.321
X31.219Y-53.861
X31.219Y-56.401
M30
